nColumns=28
nRows=79
DataType=double
version=3
OpenSimVersion=4.1
endheader
time	ground_force_1_vx	ground_force_1_vy	ground_force_1_vz	ground_force_1_px	ground_force_1_py	ground_force_1_pz	ground_force_1_mx	ground_force_1_my	ground_force_1_mz	ground_force_2_vx	ground_force_2_vy	ground_force_2_vz	ground_force_2_px	ground_force_2_py	ground_force_2_pz	ground_force_2_mx	ground_force_2_my	ground_force_2_mz	ground_force_3_vx	ground_force_3_vy	ground_force_3_vz	ground_force_3_px	ground_force_3_py	ground_force_3_pz	ground_force_3_mx	ground_force_3_my	ground_force_3_mz
6.69	0.625184	438.81	-16.7216	-0.279712	0.006	-0.425145	0	-1.54854	0	8.54604	200.221	18.4684	-0.245848	0.006	-0.752272	0	-0.001023	0	0	0	0	0	0	0	0	0	0
6.7	0.809601	441.144	-16.8801	-0.279615	0.006	-0.425044	0	-1.54496	0	8.85667	200.27	18.0817	-0.245683	0.006	-0.752067	0	-0.015478	0	0	0	0	0	0	0	0	0	0
6.71	1.03623	443.713	-17.0821	-0.279549	0.006	-0.424935	0	-1.54334	0	9.22063	200.271	17.6878	-0.24562	0.006	-0.751847	0	-0.028178	0	0	0	0	0	0	0	0	0	0
6.72	1.30288	446.467	-17.3254	-0.27951	0.006	-0.424817	0	-1.54416	0	9.62852	200.226	17.291	-0.245649	0.006	-0.751618	0	-0.038812	0	0	0	0	0	0	0	0	0	0
6.73	1.60556	449.368	-17.6069	-0.279495	0.006	-0.42469	0	-1.5478	0	10.0693	200.146	16.897	-0.245756	0.006	-0.751385	0	-0.047051	0	0	0	0	0	0	0	0	0	0
6.74	1.94027	452.376	-17.9226	-0.279501	0.006	-0.424556	0	-1.55469	0	10.5309	200.05	16.5133	-0.245931	0.006	-0.751153	0	-0.052533	0	0	0	0	0	0	0	0	0	0
6.75	2.3038	455.452	-18.2664	-0.279525	0.006	-0.424417	0	-1.5651	0	11.0012	199.966	16.1484	-0.246165	0.006	-0.750928	0	-0.054893	0	0	0	0	0	0	0	0	0	0
6.76	2.69369	458.554	-18.6316	-0.279564	0.006	-0.424276	0	-1.57913	0	11.4701	199.93	15.8116	-0.24645	0.006	-0.750716	0	-0.053813	0	0	0	0	0	0	0	0	0	0
6.77	3.10867	461.631	-19.0112	-0.279615	0.006	-0.424135	0	-1.59655	0	11.9307	199.983	15.5114	-0.246782	0.006	-0.750526	0	-0.049073	0	0	0	0	0	0	0	0	0	0
6.78	3.54917	464.629	-19.3979	-0.279676	0.006	-0.423996	0	-1.61682	0	12.3789	200.163	15.2561	-0.247155	0.006	-0.750364	0	-0.04057	0	0	0	0	0	0	0	0	0	0
6.79	4.01589	467.49	-19.7846	-0.279745	0.006	-0.423861	0	-1.63911	0	12.8133	200.504	15.0537	-0.247563	0.006	-0.750236	0	-0.028214	0	0	0	0	0	0	0	0	0	0
6.8	4.50621	470.161	-20.1644	-0.279819	0.006	-0.423732	0	-1.66246	0	13.2329	201.035	14.9118	-0.247998	0.006	-0.750145	0	-0.011949	0	0	0	0	0	0	0	0	0	0
6.81	5.01033	472.595	-20.5316	-0.279893	0.006	-0.42361	0	-1.68579	0	13.6354	201.777	14.8373	-0.248446	0.006	-0.750095	0	0.008117	0	0	0	0	0	0	0	0	0	0
6.82	5.51079	474.757	-20.8817	-0.27996	0.006	-0.423498	0	-1.70794	0	14.0166	202.747	14.8358	-0.248889	0.006	-0.750089	0	0.031715	0	0	0	0	0	0	0	0	0	0
6.83	5.98736	476.62	-21.212	-0.280013	0.006	-0.423396	0	-1.72761	0	14.3704	203.95	14.911	-0.249307	0.006	-0.750129	0	0.058495	0	0	0	0	0	0	0	0	0	0
6.84	6.42292	478.175	-21.5208	-0.28005	0.006	-0.423307	0	-1.74339	0	14.6891	205.383	15.0637	-0.24968	0.006	-0.750213	0	0.088056	0	0	0	0	0	0	0	0	0	0
6.85	6.8062	479.425	-21.8083	-0.280067	0.006	-0.423231	0	-1.75388	0	14.9642	207.032	15.2914	-0.249993	0.006	-0.75034	0	0.120045	0	0	0	0	0	0	0	0	0	0
6.86	7.13139	480.38	-22.0754	-0.280066	0.006	-0.423171	0	-1.7577	0	15.1873	208.875	15.5899	-0.250234	0.006	-0.750506	0	0.15429	0	0	0	0	0	0	0	0	0	0
6.87	7.39465	481.057	-22.3233	-0.280046	0.006	-0.423128	0	-1.75358	0	15.3509	210.883	15.9538	-0.250392	0.006	-0.750706	0	0.190733	0	0	0	0	0	0	0	0	0	0
6.88	7.5908	481.474	-22.5519	-0.280009	0.006	-0.423102	0	-1.74031	0	15.4493	213.02	16.3787	-0.250463	0.006	-0.750937	0	0.229377	0	0	0	0	0	0	0	0	0	0
6.89	7.71359	481.647	-22.7599	-0.279953	0.006	-0.423095	0	-1.71689	0	15.4787	215.251	16.8612	-0.250441	0.006	-0.751197	0	0.270162	0	0	0	0	0	0	0	0	0	0
6.9	7.75848	481.584	-22.9453	-0.279878	0.006	-0.423106	0	-1.68268	0	15.438	217.536	17.3997	-0.250324	0.006	-0.751483	0	0.312944	0	0	0	0	0	0	0	0	0	0
6.91	7.72388	481.288	-23.1064	-0.279785	0.006	-0.423136	0	-1.63741	0	15.3284	219.839	17.9931	-0.25011	0.006	-0.751796	0	0.357539	0	0	0	0	0	0	0	0	0	0
6.92	7.60895	480.762	-23.2433	-0.279672	0.006	-0.423185	0	-1.5812	0	15.1525	222.122	18.6403	-0.249794	0.006	-0.752138	0	0.403717	0	0	0	0	0	0	0	0	0	0
6.93	7.41095	480.008	-23.3574	-0.279535	0.006	-0.423249	0	-1.51449	0	14.913	224.349	19.3394	-0.249371	0.006	-0.752511	0	0.451191	0	0	0	0	0	0	0	0	0	0
6.94	7.1264	479.028	-23.451	-0.279371	0.006	-0.423328	0	-1.43803	0	14.6117	226.486	20.088	-0.248831	0.006	-0.752918	0	0.499494	0	0	0	0	0	0	0	0	0	0
6.95	6.75402	477.821	-23.5273	-0.279177	0.006	-0.423417	0	-1.35287	0	14.2488	228.494	20.8819	-0.248166	0.006	-0.753362	0	0.548055	0	0	0	0	0	0	0	0	0	0
6.96	6.29691	476.388	-23.59	-0.278949	0.006	-0.423513	0	-1.26029	0	13.8239	230.338	21.7149	-0.247367	0.006	-0.753847	0	0.596191	0	0	0	0	0	0	0	0	0	0
6.97	5.76314	474.729	-23.643	-0.278685	0.006	-0.423612	0	-1.16183	0	13.3368	231.984	22.5783	-0.24642	0.006	-0.754375	0	0.643256	0	0	0	0	0	0	0	0	0	0
6.98	5.1647	472.848	-23.6903	-0.278383	0.006	-0.42371	0	-1.05926	0	12.7884	233.402	23.4627	-0.245312	0.006	-0.754949	0	0.688616	0	0	0	0	0	0	0	0	0	0
6.99	4.51563	470.759	-23.7354	-0.278042	0.006	-0.423802	0	-0.954604	0	12.1814	234.569	24.3587	-0.244031	0.006	-0.755571	0	0.731589	0	0	0	0	0	0	0	0	0	0
7	3.8309	468.479	-23.7814	-0.277665	0.006	-0.423886	0	-0.850158	0	11.5206	235.467	25.2581	-0.242564	0.006	-0.756244	0	0.771508	0	0	0	0	0	0	0	0	0	0
7.01	3.12679	466.036	-23.8312	-0.277252	0.006	-0.423957	0	-0.748416	0	10.812	236.08	26.1541	-0.240902	0.006	-0.75697	0	0.807675	0	0	0	0	0	0	0	0	0	0
7.02	2.42241	463.464	-23.8881	-0.276808	0.006	-0.424013	0	-0.652008	0	10.0637	236.396	27.0399	-0.239039	0.006	-0.75775	0	0.839319	0	0	0	0	0	0	0	0	0	0
7.03	1.74096	460.799	-23.9555	-0.27634	0.006	-0.424051	0	-0.563518	0	9.28549	236.404	27.908	-0.236977	0.006	-0.758584	0	0.865638	0	0	0	0	0	0	0	0	0	0
7.04	1.1095	458.084	-24.0379	-0.275857	0.006	-0.424069	0	-0.485299	0	8.48816	236.09	28.7486	-0.234722	0.006	-0.759467	0	0.885796	0	0	0	0	0	0	0	0	0	0
7.05	0.557414	455.358	-24.1406	-0.27537	0.006	-0.424064	0	-0.419383	0	7.68508	235.446	29.5494	-0.232287	0.006	-0.760394	0	0.898903	0	0	0	0	0	0	0	0	0	0
7.06	0.113915	452.658	-24.2693	-0.27489	0.006	-0.424036	0	-0.367364	0	6.89384	234.468	30.2967	-0.229695	0.006	-0.761354	0	0.904232	0	0	0	0	0	0	0	0	0	0
7.07	-0.194766	450.009	-24.4306	-0.274429	0.006	-0.423983	0	-0.330341	0	6.13512	233.158	30.9766	-0.226972	0.006	-0.762336	0	0.901417	0	0	0	0	0	0	0	0	0	0
7.08	-0.34795	447.421	-24.6316	-0.273994	0.006	-0.423905	0	-0.308934	0	5.42854	231.523	31.5756	-0.224151	0.006	-0.763324	0	0.890484	0	0	0	0	0	0	0	0	0	0
7.09	-0.333356	444.895	-24.8782	-0.273595	0.006	-0.423801	0	-0.303156	0	4.78897	229.575	32.081	-0.22126	0.006	-0.764306	0	0.871694	0	0	0	0	0	0	0	0	0	0
7.1	-0.1482	442.413	-25.1719	-0.273235	0.006	-0.423672	0	-0.312286	0	4.22308	227.322	32.4809	-0.218324	0.006	-0.765268	0	0.845457	0	0	0	0	0	0	0	0	0	0
7.11	0.202309	439.947	-25.508	-0.272918	0.006	-0.423521	0	-0.334997	0	3.72729	224.77	32.7654	-0.215362	0.006	-0.766198	0	0.812237	0	0	0	0	0	0	0	0	0	0
7.12	0.706314	437.454	-25.8751	-0.272645	0.006	-0.423349	0	-0.369517	0	3.28898	221.918	32.9288	-0.212383	0.006	-0.767087	0	0.772476	0	0	0	0	0	0	0	0	0	0
7.13	1.34662	434.881	-26.2571	-0.272415	0.006	-0.423162	0	-0.413738	0	2.89055	218.766	32.9704	-0.209394	0.006	-0.767928	0	0.726769	0	0	0	0	0	0	0	0	0	0
7.14	2.10244	432.17	-26.6356	-0.272225	0.006	-0.422963	0	-0.465365	0	2.5151	215.317	32.8948	-0.206396	0.006	-0.768715	0	0.676061	0	0	0	0	0	0	0	0	0	0
7.15	2.95082	429.257	-26.9932	-0.272068	0.006	-0.422757	0	-0.52209	0	2.14948	211.584	32.7116	-0.203389	0.006	-0.769444	0	0.621544	0	0	0	0	0	0	0	0	0	0
7.16	3.86662	426.088	-27.3151	-0.271937	0.006	-0.422548	0	-0.581682	0	1.78435	207.59	32.4343	-0.200373	0.006	-0.770116	0	0.564572	0	0	0	0	0	0	0	0	0	0
7.17	4.82095	422.62	-27.5896	-0.271819	0.006	-0.422337	0	-0.642139	0	1.41275	203.363	32.0789	-0.197346	0.006	-0.77073	0	0.506623	0	0	0	0	0	0	0	0	0	0
7.18	5.77984	418.826	-27.8087	-0.271699	0.006	-0.422128	0	-0.701813	0	1.02879	198.933	31.6606	-0.194307	0.006	-0.771288	0	0.449266	0	0	0	0	0	0	0	0	0	0
7.19	6.70344	414.69	-27.969	-0.27156	0.006	-0.421921	0	-0.759403	0	0.626759	194.325	31.1932	-0.191252	0.006	-0.771793	0	0.394052	0	0	0	0	0	0	0	0	0	0
7.2	7.54745	410.21	-28.0718	-0.27138	0.006	-0.421716	0	-0.813771	0	0.200969	189.562	30.6892	-0.188182	0.006	-0.772245	0	0.342432	0	0	0	0	0	0	0	0	0	0
7.21	8.26726	405.396	-28.1233	-0.271138	0.006	-0.42151	0	-0.863827	0	-0.253076	184.667	30.1614	-0.185093	0.006	-0.772646	0	0.295552	0	0	0	0	0	0	0	0	0	0
7.22	8.82322	400.265	-28.1326	-0.270809	0.006	-0.421302	0	-0.908533	0	-0.737169	179.67	29.6222	-0.181987	0.006	-0.772998	0	0.25409	0	0	0	0	0	0	0	0	0	0
7.23	9.18611	394.834	-28.1098	-0.270373	0.006	-0.421086	0	-0.946892	0	-1.24974	174.609	29.0831	-0.178863	0.006	-0.773302	0	0.218205	0	0	0	0	0	0	0	0	0	0
7.24	9.33894	389.128	-28.064	-0.269807	0.006	-0.420857	0	-0.977825	0	-1.78587	169.53	28.5536	-0.175726	0.006	-0.773559	0	0.187696	0	0	0	0	0	0	0	0	0	0
7.25	9.27685	383.171	-28.0024	-0.269092	0.006	-0.420611	0	-1.00028	0	-2.33899	164.485	28.0403	-0.17258	0.006	-0.773767	0	0.162304	0	0	0	0	0	0	0	0	0	0
7.26	9.00601	377.001	-27.9291	-0.268211	0.006	-0.420343	0	-1.01323	0	-2.90334	159.525	27.5464	-0.169438	0.006	-0.773925	0	0.141822	0	0	0	0	0	0	0	0	0	0
7.27	8.53906	370.664	-27.8445	-0.267147	0.006	-0.420048	0	-1.01562	0	-3.47463	154.7	27.0725	-0.166314	0.006	-0.774028	0	0.126002	0	0	0	0	0	0	0	0	0	0
7.28	7.88882	364.221	-27.7462	-0.265885	0.006	-0.419725	0	-1.00647	0	-4.04933	150.052	26.6166	-0.163227	0.006	-0.774072	0	0.114515	0	0	0	0	0	0	0	0	0	0
7.29	7.06682	357.748	-27.6299	-0.264412	0.006	-0.41937	0	-0.985212	0	-4.62301	145.624	26.1761	-0.160198	0.006	-0.774054	0	0.106875	0	0	0	0	0	0	0	0	0	0
7.3	6.08717	351.331	-27.4913	-0.262721	0.006	-0.418985	0	-0.951896	0	-5.18881	141.449	25.7482	-0.157246	0.006	-0.773974	0	0.102485	0	0	0	0	0	0	0	0	0	0
7.31	4.97097	345.069	-27.3274	-0.260812	0.006	-0.418572	0	-0.9072	0	-5.73718	137.559	25.3299	-0.154393	0.006	-0.77383	0	0.100696	0	0	0	0	0	0	0	0	0	0
7.32	3.75027	339.066	-27.1376	-0.258696	0.006	-0.418132	0	-0.85236	0	-6.25803	133.973	24.9176	-0.151661	0.006	-0.773625	0	0.10076	0	0	0	0	0	0	0	0	0	0
7.33	2.46925	333.429	-26.925	-0.25639	0.006	-0.41767	0	-0.789219	0	-6.74334	130.707	24.5076	-0.149069	0.006	-0.773362	0	0.102031	0	0	0	0	0	0	0	0	0	0
7.34	1.18024	328.258	-26.6969	-0.253923	0.006	-0.417185	0	-0.720142	0	-7.18862	127.772	24.0957	-0.146633	0.006	-0.773047	0	0.104249	0	0	0	0	0	0	0	0	0	0
7.35	-0.0637035	323.634	-26.4647	-0.251325	0.006	-0.416678	0	-0.647841	0	-7.59326	125.177	23.678	-0.144371	0.006	-0.772687	0	0.107537	0	0	0	0	0	0	0	0	0	0
7.36	-1.21621	319.607	-26.2427	-0.248631	0.006	-0.41615	0	-0.575263	0	-7.95973	122.936	23.253	-0.142296	0.006	-0.772292	0	0.112246	0	0	0	0	0	0	0	0	0	0
7.37	-2.24124	316.195	-26.0448	-0.245875	0.006	-0.415601	0	-0.505286	0	-8.2915	121.065	22.8225	-0.140421	0.006	-0.771874	0	0.118763	0	0	0	0	0	0	0	0	0	0
7.38	-3.11349	313.383	-25.8828	-0.243094	0.006	-0.415033	0	-0.440484	0	-8.59071	119.588	22.3933	-0.138755	0.006	-0.771452	0	0.127441	0	0	0	0	0	0	0	0	0	0
7.39	-3.81825	311.144	-25.7648	-0.24032	0.006	-0.414451	0	-0.383049	0	-8.85669	118.531	21.977	-0.137307	0.006	-0.771045	0	0.138589	0	0	0	0	0	0	0	0	0	0
7.4	-4.35156	309.447	-25.6956	-0.237583	0.006	-0.413857	0	-0.334646	0	-9.08538	117.924	21.5892	-0.136084	0.006	-0.770676	0	0.152399	0	0	0	0	0	0	0	0	0	0
7.41	-4.71917	308.266	-25.6768	-0.234912	0.006	-0.413258	0	-0.296275	0	-9.27101	117.794	21.2493	-0.135089	0.006	-0.77037	0	0.168935	0	0	0	0	0	0	0	0	0	0
7.42	-4.93308	307.585	-25.7076	-0.232333	0.006	-0.412661	0	-0.268305	0	-9.4102	118.171	20.9789	-0.134316	0.006	-0.770153	0	0.188022	0	0	0	0	0	0	0	0	0	0
7.43	-5.00637	307.399	-25.7857	-0.229872	0.006	-0.412071	0	-0.25061	0	-9.50496	119.079	20.8012	-0.133754	0.006	-0.77005	0	0.209033	0	0	0	0	0	0	0	0	0	0
7.44	-4.94839	307.716	-25.9084	-0.227553	0.006	-0.411494	0	-0.242765	0	-9.56287	120.536	20.7387	-0.133381	0.006	-0.770081	0	0.230974	0	0	0	0	0	0	0	0	0	0
7.45	-4.76385	308.553	-26.074	-0.225398	0.006	-0.410937	0	-0.244141	0	-9.59479	122.554	20.8094	-0.13317	0.006	-0.770258	0	0.252941	0	0	0	0	0	0	0	0	0	0
7.46	-4.45556	309.932	-26.2827	-0.223419	0.006	-0.410401	0	-0.253896	0	-9.61203	125.131	21.0252	-0.133088	0.006	-0.770582	0	0.274317	0	0	0	0	0	0	0	0	0	0
7.47	-4.0283	311.877	-26.5355	-0.221625	0.006	-0.409887	0	-0.271104	0	-9.62512	128.255	21.3906	-0.133103	0.006	-0.771047	0	0.294899	0	0	0	0	0	0	0	0	0	0
